<?xml version="1.0" encoding="utf-8"?>
<!-- Generator: Adobe Illustrator 19.1.0, SVG Export Plug-In . SVG Version: 6.00 Build 0)  -->
<svg version="1.1" id="Layer_1" xmlns="http://www.w3.org/2000/svg" xmlns:xlink="http://www.w3.org/1999/xlink" x="0px" y="0px"
	 viewBox="0 0 380 150" style="enable-background:new 0 0 380 150;" xml:space="preserve">
<style type="text/css">
	.st0{fill:#FFFFFF;}
	.st1{fill:#A51D31;}
	.st2{fill:#1F1F1F;}
	.st3{fill:none;stroke:#1F1F1F;stroke-width:0.2183;}
	.st4{fill:none;stroke:#1F1F1F;stroke-width:0.2292;}
</style>
<g>
	<g>
		<path class="st0" d="M153.8,92.9c0-0.8-0.5-1.4-1.6-1.6v-0.5c0.6,0,2.5,0.1,3.1,0.1c0.5,0,2.3-0.1,2.9-0.1v0.5
			c-1,0.2-1.5,0.8-1.5,1.6v10c0,3.2,1.7,5,5.4,5c3.1,0,5.6-1.4,5.6-4.7V92.8c0-0.7-0.5-1.3-1.6-1.6v-0.5c0.4,0,2,0.1,2.6,0.1
			c0.5,0,2.1-0.1,2.6-0.1v0.5c-1.1,0.3-1.6,0.8-1.6,1.6v9.7c0,4.4-2.5,6.9-8,6.9c-5.1,0-7.7-2.3-7.7-6.4V92.9z"/>
		<path class="st0" d="M175.7,108.6c1.2-0.2,1.7-0.8,1.7-1.6V93.3c0-1.2-0.6-1.7-1.7-2v-0.5c0.6,0,1.6,0.1,2.1,0.1
			c0.5,0,1.2,0,1.7-0.1l12,14.1v-12c0-0.7-0.5-1.3-1.6-1.6v-0.5c0.4,0,2,0.1,2.5,0.1c0.5,0,2.1-0.1,2.6-0.1v0.5
			c-1.1,0.3-1.7,0.8-1.7,1.6v16.6h-0.7c-0.5-0.1-1.3-0.6-2.6-2l-10.7-12.5v12.2c0,0.7,0.4,1.3,1.6,1.6v0.5c-0.4,0-2-0.1-2.5-0.1
			c-0.5,0-2.1,0.1-2.5,0.1V108.6z"/>
		<path class="st0" d="M270.4,104.9h0.5c0.3,1,0.9,2,1.7,2.5c0.9,0.6,2.2,0.9,3.3,0.9c2.4,0,3.9-1.2,3.9-3.1c0-2-2-3-4.3-4.2
			c-1.7-0.9-5.2-2.3-5.2-5.6c0-3.1,2.4-5,6.1-5c2.5,0,3.7,0.6,5.3,0.5l0,3.8h-0.5c-0.7-2.2-2.7-3-4.9-3c-2.5,0-3.4,1.4-3.4,2.8
			c0,2,2,3.1,4.3,4.1c2.5,1.1,5.3,2.6,5.3,5.8c0,3-2.4,5.2-6.7,5.2c-2.6,0-4.1-0.7-5.5-0.9L270.4,104.9z"/>
		<path class="st0" d="M321.9,101.5l-4.9-7.8c-0.8-1.4-1.5-2.1-2.4-2.4v-0.5c0.7,0,2.5,0.1,3,0.1c0.5,0,2.4-0.1,3.1-0.1v0.5
			c-0.6,0.1-0.9,0.4-0.9,0.9c0,0.4,0.3,1,0.6,1.4c0.3,0.5,3.6,6,3.6,6l3.5-6c0.3-0.6,0.6-1.2,0.6-1.6c0-0.4-0.3-0.6-0.8-0.7v-0.5
			c0.6,0,1.8,0.1,2.2,0.1c0.4,0,1.8-0.1,2.4-0.1v0.5c-1.3,0.5-2.2,1.7-3,3.1l-4.4,7.4 M324.7,100.8v6.3c0,0.6,0.5,1.4,1.5,1.6v0.5
			c-0.6,0-2.5-0.1-3.1-0.1c-0.5,0-2.3,0.1-3,0.1v-0.5c1.1-0.2,1.6-1,1.6-1.6v-6"/>
	</g>
	<path class="st0" d="M231.2,90.8h11.5c0.4,0,1,0,1.3-0.2h0.5l-0.1,3.7h-0.5c-0.4-1.2-0.9-2.1-3.1-2.1h-5v6.5c0,0,3.5,0,3.8,0
		c0.6,0,1.2,0,1.5-0.1c0.9-0.2,1.2-0.7,1.4-1.4h0.5c0,0.6,0,1.8,0,2.2s0,1.7,0,2.3h-0.5c-0.2-0.7-0.6-1.3-1.4-1.5
		c-0.3-0.1-1-0.1-1.5-0.1c-0.3,0-3.8,0-3.8,0v7.6h5.4c2.4,0,3-1,3.6-2.4l0.5,0.1l-0.5,3.8c-1.8-0.2-2.8-0.2-4.8-0.2h-5.7
		c-0.5,0-2.6,0.1-3.2,0.1v-0.5c1-0.2,1.6-0.7,1.6-1.7V92.9c0-0.9-0.5-1.4-1.6-1.6V90.8z"/>
	<path class="st0" d="M201.9,93c0-0.9-0.6-1.5-1.7-1.7v-0.5c0.6,0,2.6,0.1,3.2,0.1c0.5,0,2.5-0.1,3.1-0.1v0.5
		c-1.1,0.2-1.7,0.7-1.7,1.7v14c0,0.9,0.6,1.5,1.7,1.7v0.5c-0.6,0-2.6-0.1-3.1-0.1c-0.5,0-2.6,0.1-3.2,0.1v-0.5
		c1.1-0.2,1.7-0.7,1.7-1.7V93z"/>
	<path class="st0" d="M288.8,93c0-0.9-0.6-1.5-1.7-1.7v-0.5c0.6,0,2.6,0.1,3.2,0.1c0.5,0,2.5-0.1,3.2-0.1v0.5
		c-1.1,0.2-1.7,0.7-1.7,1.7v14c0,0.9,0.6,1.5,1.7,1.7v0.5c-0.6,0-2.6-0.1-3.2-0.1c-0.5,0-2.6,0.1-3.2,0.1v-0.5
		c1.1-0.2,1.7-0.7,1.7-1.7V93z"/>
	<path class="st0" d="M304.7,90.8c-6.3,0-7.3-0.1-8.6-0.2l0,3.8h0.5c0.5-1.7,1.4-2.1,2.6-2.1h3.9V107c0,1-0.5,1.5-1.7,1.7v0.5
		c0.6,0,2.7-0.1,3.2-0.1c0.6,0,2.5,0.1,3.2,0.1v-0.5c-1.1-0.2-1.7-0.7-1.7-1.7V92.4h3.9c1.3,0,2.2,0.4,2.6,2.1h0.5l0-3.8
		C312,90.7,311,90.8,304.7,90.8z"/>
	<path class="st0" d="M254.6,107c0,0.9,0.6,1.5,1.7,1.7v0.5c-0.6,0-2.6-0.1-3.2-0.1c-0.5,0-2.5,0.1-3.1,0.1v-0.5
		c1-0.2,1.6-0.7,1.6-1.7V92.8c0-0.9-0.5-1.4-1.6-1.6v-0.5c0.6,0,2.6,0.1,3.1,0.1c0.9,0,3.5-0.2,4.5-0.2c4.4,0,6.9,1.8,6.9,4.9
		c0,2.5-1.8,4.1-4.6,4.8c0,0,0.6,0.4,1.3,1.1c0.8,0.9,2.9,3.9,3.7,5c0.9,1.1,2,2.2,3.2,2.3v0.4c-0.6,0.1-1.5,0.2-2.2,0.2
		c-1.5,0-2.7-0.5-3.9-1.9c-1-1.2-2.7-3.7-3.7-5c-0.6-0.8-1.4-1.5-2.8-1.7c-0.3,0-0.5-0.1-0.8-0.1V107z M254.6,99.5
		c0.6,0.1,1.4,0.1,2.3,0.1c3.4,0,4.5-2,4.5-3.7c0-2.5-1.7-4-4.7-4c-0.6,0-1.5,0.1-2.2,0.2V99.5z"/>
	<path class="st0" d="M211,93c-0.4-0.9-1-1.5-2.1-1.8v-0.5c0.7,0,2.9,0.1,3.4,0.1c0.5,0,2.4-0.1,3.1-0.1v0.5
		c-0.6,0.1-1.3,0.4-1.3,1.1c0,0.4,0.3,1,0.8,2.1l4.7,10.8l4.5-10.8c0.4-0.9,0.6-1.5,0.6-2.1c0-0.6-0.5-1-1.3-1.1v-0.5
		c0.6,0,2.1,0.1,2.5,0.1c0.4,0,2.1-0.1,2.8-0.1v0.5c-1.1,0.3-1.8,0.9-2.4,2.4l-6.6,15.6h-1.5L211,93z"/>
	<path class="st0" d="M227.9,43.9c-0.8-1.7-1.9-2.9-3.9-3.4v-1c1.2,0,5.3,0.1,6.3,0.1c0.9,0,4.8-0.1,6.1-0.1v1
		c-1.1,0.2-2.4,0.8-2.4,2c0,0.8,0.5,1.9,1.4,4.1l9,20.4l8.5-20.5c0.7-1.7,1.2-2.9,1.2-3.9c0-1.1-1-1.8-2.4-2.1v-1
		c1.1,0,3.9,0.1,4.7,0.1c0.8,0,4-0.1,5.3-0.1v0.9c-2.1,0.6-3.4,1.8-4.6,4.6l-12.5,29.5h-2.8L227.9,43.9z"/>
	<path class="st0" d="M106.8,73.5c1.6-0.4,2.8-1.1,2.8-3V43.4c0-1.8-1.1-2.5-2.8-3v-1c0.9,0,4.6,0.1,5.5,0.1c1,0,4.9-0.1,5.8-0.1v1
		c-1.6,0.4-2.8,1.1-2.8,3v11.3h20.2V43.4c0-1.9-1.1-2.6-2.8-3v-1c0.9,0,4.7,0.1,5.7,0.1c0.9,0,4.7-0.1,5.5-0.1v1
		c-1.6,0.4-2.8,1.1-2.8,3v27.1c0,1.8,1.1,2.5,2.8,3v0.9c-0.8,0-4.6-0.1-5.5-0.1c-1,0-4.8,0.1-5.7,0.1v-0.9c1.6-0.4,2.8-1.1,2.8-3
		V57.7h-20.2v12.8c0,1.9,1.1,2.5,2.8,3v0.9c-0.9,0-4.7-0.1-5.8-0.1c-0.9,0-4.6,0.1-5.5,0.1V73.5z"/>
	<path class="st0" d="M340,73.5c2.1-0.4,3.2-1.2,3.2-3.1V43.4c0-1.9-1.1-2.6-3.2-3v-1c1.2,0,5,0.1,6,0.1c1.7,0,6.4-0.4,10.1-0.4
		c12.4,0,19.9,6.9,19.9,17.5c0,10.2-7.8,17.8-20.6,17.8c-3.7,0-8.1-0.3-9.8-0.3c-1,0-4.6,0.1-5.7,0.1V73.5z M348.8,71.7
		c1.3,0.2,3.6,0.4,5.4,0.4c10.4,0,15.8-6.3,15.8-15c0-9.1-5.7-15.4-15.5-15.4c-2,0-4.5,0.1-5.8,0.4V71.7z"/>
	<path class="st0" d="M199.6,70.3c0,1.8,1.1,2.8,3.2,3.2v1c-1.2,0-5-0.1-6.1-0.1c-0.9,0-4.6,0.1-5.8,0.1v-1c1.9-0.4,3.1-1.3,3.1-3.2
		V43.5c0-1.6-0.9-2.7-3.1-3.1v-1c1.2,0,4.8,0.1,5.9,0.1c1.7,0,6.5-0.3,8.4-0.3c8.3,0,13,3.4,13,9.4c0,4.6-3.5,7.8-8.8,9.1
		c0,0,1.2,0.7,2.4,2.1c1.5,1.7,5.5,7.5,7.2,9.5c1.6,2,3.7,4.2,6,4.3v0.8c-1.1,0.2-2.8,0.4-4.1,0.4c-2.8,0-5.1-1-7.3-3.7
		c-1.9-2.3-5.2-7.2-7.1-9.6c-1.2-1.5-2.7-2.8-5.4-3.2c-0.5-0.1-1-0.2-1.6-0.2V70.3z M199.6,56.1c1.1,0.1,2.7,0.2,4.4,0.2
		c6.5,0,8.6-3.8,8.6-7.1c0-4.7-3.1-7.6-8.9-7.6c-1.2,0-2.9,0.1-4.1,0.4V56.1z"/>
	<path class="st0" d="M309.6,70.3c0,1.8,1.1,2.8,3.2,3.2v1c-1.2,0-5-0.1-6-0.1c-0.9,0-4.6,0.1-5.8,0.1v-1c1.9-0.4,3.1-1.3,3.1-3.2
		V43.5c0-1.6-0.9-2.7-3.1-3.1v-1c1.2,0,4.8,0.1,5.9,0.1c1.7,0,6.5-0.3,8.4-0.3c8.4,0,13,3.4,13,9.4c0,4.6-3.5,7.8-8.8,9.1
		c0,0,1.2,0.7,2.4,2.1c1.5,1.7,5.5,7.5,7.2,9.5c1.6,2,3.8,4.2,6,4.3v0.8c-1.1,0.2-2.8,0.4-4.1,0.4c-2.9,0-5.1-1-7.3-3.7
		c-1.9-2.3-5.2-7.2-7.1-9.6c-1.2-1.5-2.7-2.8-5.4-3.2c-0.5-0.1-1-0.2-1.6-0.2V70.3z M309.6,56.1c1.1,0.1,2.7,0.2,4.4,0.2
		c6.5,0,8.6-3.8,8.6-7.1c0-4.7-3.1-7.6-8.8-7.6c-1.2,0-2.9,0.1-4.1,0.4V56.1z"/>
	<path class="st0" d="M149.1,73.5c2.2-0.5,3.4-1.9,4.2-3.9l11.2-26.9c0.5-1.1,1-3.4,1-3.4h3.1c0,0,0.6,2.3,1,3.4l11.8,26.9
		c0.8,1.9,1.8,3.2,4.1,3.8l0,0.9c-1.3,0-5.2-0.1-6.2-0.1c-0.9,0-4.7,0.1-6,0.1l0-0.9c1.7-0.4,2.3-1.3,2.3-2.1c0-0.7-0.3-1.5-0.7-2.4
		l-2.5-5.8h-13l-2.3,5.8c-0.3,0.7-0.6,1.6-0.6,2.2c0,1,0.5,1.7,2.5,2.3l0,0.9c-1.2,0-4.2-0.1-4.9-0.1l-5,0.1L149.1,73.5z
		 M171.3,60.4l-5.6-12.9l-5.2,12.9H171.3z"/>
	<path class="st0" d="M259.7,73.5c2.2-0.5,3.4-1.9,4.2-3.9l11.2-26.9c0.5-1.1,1-3.4,1-3.4h3.1c0,0,0.6,2.3,1,3.4l11.8,26.9
		c0.8,1.9,1.7,3.2,4.1,3.8l0,0.9c-1.3,0-5.2-0.1-6.2-0.1c-0.9,0-4.7,0.1-6,0.1l0-0.9c1.7-0.4,2.3-1.3,2.3-2.1c0-0.7-0.3-1.5-0.6-2.4
		l-2.5-5.8h-13l-2.3,5.8c-0.3,0.7-0.6,1.6-0.6,2.2c0,1,0.5,1.7,2.5,2.3l0,0.9c-1.2,0-4.2-0.1-4.9-0.1l-5,0.1L259.7,73.5z
		 M281.9,60.4l-5.6-12.9l-5.2,12.9H281.9z"/>
</g>
<path class="st1" d="M3.7,28.7h77.9v29.4c0,13.5-5,42-38.6,63.3c0,0-36.4-15.2-39.2-63.3V28.7z"/>
<path class="st2" d="M42.9,121.8l-0.2-0.1c-0.4-0.2-36.7-15.9-39.5-63.7l0-29.9h78.8V58c0,11.8-3.8,41.5-38.8,63.7L42.9,121.8z
	 M4.1,29.1V58c2.6,45.3,35.7,61.4,38.7,62.8C77.3,98.9,81,69.6,81,58V29.1H4.1z"/>
<path class="st0" d="M62.7,66.5c0,0-0.7,2.2-3.8-0.1l-10.6-0.3c0,0-1.4,0.4-1.6-1c0,0,0.3-2.9,0.1-3.2c0,0,0.1-0.8-1.3-0.8
	c0,0-2.1,0.3-2.2-1.6c0,0-0.4-2,2.6-2c0,0,0.9,0.4,1-0.8c0,0-0.1-8.2-0.1-8.8c0,0,0.3-0.8-1.2-0.9c0,0-2.1,0.4-2.3-0.9
	c0,0-0.1-2.1,1.3-2.2c0,0,1.7,0.1,2-0.3c0,0,0.4,0.2,0.3-1.3l0.1-2.6c0,0,0.2-0.7,1.3-0.6c0,0,2,0.1,2.2-0.1c0,0,0.4-0.6,0.6-0.8
	c0,0,1-0.1,1.2,0.2c0,0,1.5,1,7.3,0.6c0,0,0.9,0,1.1,0.3c0,0,1.1,0.8,1.7-0.1c0,0,0.9-0.2,3.8-0.1c0,0,3.1,0.8,5.2-0.9l0.7,0.1
	c0,0,0.9,1.4,1.5,1c0,0,1.9-0.2,2.2,0.2c0,0,0.6,0.9,0.3,3.4c0,0-0.4,1.1,1.5,1.1c0,0,2.1-0.4,1.8,1.6c0,0,0.6,2.2-2.9,1.9
	c0,0-0.4,0.6-0.4,1.1c0,0-0.1,7.2-0.1,8c0,0-0.1,1.1,1.5,1.1c0,0,2-0.1,2.1,1.7c0,0,0.3,2.4-2.7,2c0,0-0.9,0.1-1,0.7l-0.1,3.2
	c0,0,0.1,1.6-1.7,1.2c-0.3,0-9.8,0.2-10.7-0.1C63.2,66.3,62.8,66.2,62.7,66.5"/>
<path class="st0" d="M42.3,77c0,0,0.4-0.2,0.6-0.5c0,0,1.3-0.1,1.5-0.3l4.2,0.3c0,0,4.1,0.3,5.9-1c0,0,0.6,0,1.1,0.2
	c0,0,0.9,0.2,1.1,0.6l2.4-0.1c0,0,1.4,0.4,1.3,1.3v1.1c0,0-0.3,2.3,0.4,2.4h1.8c0,0,1.5,0.7,1.3,1.6c0,0,0.1,1.3-1.3,1.5
	c0,0-1.3,0.4-1.8,0.3c0,0-0.4,0.6-0.5,1.3L60.1,94c0,0-0.1,0.9,1.2,0.8c0,0,2-0.2,2.5,0.9c0,0,0.5,1.8-0.5,2.1l-0.8,0.4l-1.6,0.3
	c0,0-0.7,0.1-0.8,1.3v2.2c0,0,0.1,1.5-1.1,1.5l-1.8,0.1c0,0-0.4,0.4-1.3,0.1c0,0-10.7,0.2-11.1,0.1l-1.3,0.3c0,0-1.4,1.3-2.5,0.3
	l-0.9-0.7c0,0-0.6,0.1-0.9,0.1c-0.3-0.1-11.9,0.1-11.9,0.1s-2.5,0.3-2.6-0.6c0,0-0.3-3.2-0.2-3.6c0,0,0-0.9-0.6-1
	c0,0-2.5-0.1-2.5-0.4c0,0-1.3-0.9-0.9-1.9c0,0,0.4-1.3,1.8-1.4c0,0,2,0.3,2-0.3c0,0,0.1-0.4,0.1-1c0,0,0.1-7.5,0.1-8
	c0,0,0.2-0.9-0.6-0.9c0,0-0.9,0.3-1.4-0.1c0,0-1.5,0.1-1.8-1.1c0,0-0.3-0.8,0.1-1.4c0,0,0.7-1.4,2.7-0.9c0,0,1.1,0.3,1.3-0.5l-0.1-3
	c0,0-0.3-0.8,1.3-1.3c0,0,2,0.6,2.6-0.4c0,0,0.7-1.4,1.3-0.4c0,0,1.2,1.1,4.5,1c0,0,5.7-0.4,5.8-0.2c0,0,1.4,0.2,1.8,0.6L42.3,77z"
	/>
<path class="st0" d="M25.1,66.5c0,0-0.7,2.2-3.8-0.1l-10.6-0.3c0,0-1.4,0.4-1.6-1c0,0,0.3-2.9,0.1-3.2c0,0,0.1-0.8-1.3-0.8
	c0,0-2.1,0.3-2.2-1.6c0,0-0.4-2,2.6-2c0,0,0.9,0.4,1-0.8c0,0-0.1-8.2-0.1-8.8c0,0,0.3-0.7-1.2-0.9c0,0-2.1,0.4-2.3-1
	c0,0-0.1-2.1,1.3-2.2c0,0,1.7,0.1,2-0.3c0,0,0.4,0.2,0.3-1.3l0.1-2.6c0,0,0.2-0.7,1.3-0.6c0,0,2,0.1,2.2-0.1c0,0,0.4-0.6,0.6-0.8
	c0,0,1-0.1,1.2,0.2c0,0,1.5,1,7.3,0.6c0,0,0.9,0,1.1,0.3c0,0,1.1,0.8,1.7-0.1c0,0,0.9-0.2,3.8-0.1c0,0,3.1,0.8,5.2-0.9l0.7,0.1
	c0,0,0.9,1.4,1.5,1c0,0,1.9-0.2,2.2,0.2c0,0,0.6,0.9,0.3,3.4c0,0-0.4,1.1,1.5,1.1c0,0,2.1-0.4,1.8,1.6c0,0,0.6,2.2-2.9,1.9
	c0,0-0.4,0.6-0.4,1.1c0,0-0.1,7.2-0.1,8c0,0-0.1,1.1,1.5,1.1c0,0,2-0.1,2.1,1.7c0,0,0.3,2.4-2.6,2c0,0-0.9,0.1-1,0.7l-0.1,3.2
	c0,0,0.1,1.6-1.7,1.2c-0.3,0-9.8,0.2-10.7-0.1C25.7,66.3,25.3,66.2,25.1,66.5"/>
<path class="st2" d="M62.7,66.5c0,0-0.7,2.2-3.8-0.1l-10.6-0.3c0,0-1.4,0.4-1.6-1c0,0,0.3-2.9,0.1-3.2c0,0,0.1-0.8-1.3-0.8
	c0,0-2.1,0.3-2.2-1.6c0,0-0.4-2,2.6-2c0,0,0.9,0.4,1-0.8c0,0-0.1-8.2-0.1-8.8c0,0,0.3-0.8-1.2-0.9c0,0-2.1,0.4-2.3-0.9
	c0,0-0.1-2.1,1.3-2.2c0,0,1.7,0.1,2-0.3c0,0,0.4,0.2,0.3-1.3l0.1-2.6c0,0,0.2-0.7,1.3-0.6c0,0,2,0.1,2.2-0.1c0,0,0.4-0.6,0.6-0.8
	c0,0,1-0.1,1.2,0.2c0,0,1.5,1,7.3,0.6c0,0,0.9,0,1.1,0.3c0,0,1.1,0.8,1.7-0.1c0,0,0.9-0.2,3.8-0.1c0,0,3.1,0.8,5.2-0.9l0.7,0.1
	c0,0,0.9,1.4,1.5,1c0,0,1.9-0.2,2.2,0.2c0,0,0.6,0.9,0.3,3.4c0,0-0.4,1.1,1.5,1.1c0,0,2.1-0.4,1.8,1.6c0,0,0.6,2.2-2.9,1.9
	c0,0-0.4,0.6-0.4,1.1c0,0-0.1,7.2-0.1,8c0,0-0.1,1.1,1.5,1.1c0,0,2-0.1,2.1,1.7c0,0,0.3,2.4-2.7,2c0,0-0.9,0.1-1,0.7l-0.1,3.2
	c0,0,0.1,1.6-1.7,1.2c-0.3,0-9.8,0.2-10.7-0.1C63.2,66.3,62.8,66.2,62.7,66.5"/>
<path class="st3" d="M62.7,66.5c0,0-0.7,2.2-3.8-0.1l-10.6-0.3c0,0-1.4,0.4-1.6-1c0,0,0.3-2.9,0.1-3.2c0,0,0.1-0.8-1.3-0.8
	c0,0-2.1,0.3-2.2-1.6c0,0-0.4-2,2.6-2c0,0,0.9,0.4,1-0.8c0,0-0.1-8.2-0.1-8.8c0,0,0.3-0.8-1.2-0.9c0,0-2.1,0.4-2.3-0.9
	c0,0-0.1-2.1,1.3-2.2c0,0,1.7,0.1,2-0.3c0,0,0.4,0.2,0.3-1.3l0.1-2.6c0,0,0.2-0.7,1.3-0.6c0,0,2,0.1,2.2-0.1c0,0,0.4-0.6,0.6-0.8
	c0,0,1-0.1,1.2,0.2c0,0,1.5,1,7.3,0.6c0,0,0.9,0,1.1,0.3c0,0,1.1,0.8,1.7-0.1c0,0,0.9-0.2,3.8-0.1c0,0,3.1,0.8,5.2-0.9l0.7,0.1
	c0,0,0.9,1.4,1.5,1c0,0,1.9-0.2,2.2,0.2c0,0,0.6,0.9,0.3,3.4c0,0-0.4,1.1,1.5,1.1c0,0,2.1-0.4,1.8,1.6c0,0,0.6,2.2-2.9,1.9
	c0,0-0.4,0.6-0.4,1.1c0,0-0.1,7.2-0.1,8c0,0-0.1,1.1,1.5,1.1c0,0,2-0.1,2.1,1.7c0,0,0.3,2.4-2.7,2c0,0-0.9,0.1-1,0.7l-0.1,3.2
	c0,0,0.1,1.6-1.7,1.2c-0.3,0-9.8,0.2-10.7-0.1C63.2,66.3,62.8,66.2,62.7,66.5z"/>
<path class="st0" d="M50.7,40.5c0,0,0.1,1.3,0.1,1.6c0,0.3-0.2,18.2-0.2,18.2s0.2,1.4-1,2.1c0,0-0.3,0.1-0.4-0.8l0.1-18.9
	C49.4,42.7,49.5,40.3,50.7,40.5"/>
<path class="st4" d="M50.7,40.5c0,0,0.1,1.3,0.1,1.6c0,0.3-0.2,18.2-0.2,18.2s0.2,1.4-1,2.1c0,0-0.3,0.1-0.4-0.8l0.1-18.9
	C49.4,42.7,49.5,40.3,50.7,40.5z"/>
<path class="st0" d="M48.7,62.5c0,0,0.1-17.8,0.1-18.1c-0.1-0.3,0.1,0.3,0.1,0.3s-0.2-3.1,0.6-4.4c0,0-0.3-1.1-1.7,0.3l-0.1,2.6
	c0,0,0,1.5-1.3,1.4c0,0-1.5-0.1-2.2,0.6c0,0-0.4,1.4,1.1,1.1c0,0,2.3,0,2.4,0.9l-0.1,9.5c0,0,0.5,1.6-1.3,1.6c0,0-2.1-0.1-2.1,1.2
	c0,0,0.4,1.1,2.3,0.8c0,0,1.3,0.2,1.3,1.5v2.4c0,0-0.1,1,1.1,1h9.8c0,0,0.5,0.1,0.5-0.6c0,0-0.1-0.5-0.8-0.5l-8.2-0.1
	C50.1,64.1,48.8,64.5,48.7,62.5"/>
<path class="st0" d="M50.5,62.5c0,0-0.3,0.9,0.7,0.7h6.5l1.8,0.4c0,0,1.8-0.4,0-1.5c0,0-5.8,0.1-6.3-0.1c0,0-1.2-0.3-1.5-0.4
	C51.7,61.7,51.1,61.4,50.5,62.5"/>
<path class="st4" d="M50.5,62.5c0,0-0.3,0.9,0.7,0.7h6.5l1.8,0.4c0,0,1.8-0.4,0-1.5c0,0-5.8,0.1-6.3-0.1c0,0-1.2-0.3-1.5-0.4
	C51.7,61.7,51.1,61.4,50.5,62.5z"/>
<path class="st0" d="M61.3,63.4c0,0-1.2,0-1.1,1.6c0,0,0.1,1.2,1.4,1.2c0,0,1.1-0.2,1-1.4C62.6,64.7,61.9,63.1,61.3,63.4"/>
<path class="st0" d="M62.2,62.8c0,0,0.6-0.6,0.9-0.6c0,0,6.3,0.6,7.4-0.2c0,0,1-0.2,1.2,0c0,0,0.9,0.8,0.9,1.2c0,0-0.1,0.6-1.2,0.2
	c0,0-7.1,0.1-7.5,0.1C64,63.5,62,63.9,62.2,62.8"/>
<path class="st4" d="M62.2,62.8c0,0,0.6-0.6,0.9-0.6c0,0,6.3,0.6,7.4-0.2c0,0,1-0.2,1.2,0c0,0,0.9,0.8,0.9,1.2c0,0-0.1,0.6-1.2,0.2
	c0,0-7.1,0.1-7.5,0.1C64,63.5,62,63.9,62.2,62.8z"/>
<path class="st0" d="M63,64.8c0,0,0-0.5,0.9-0.5l8.8-0.1c0,0,0.8,0.4,0.8-1.1c0,0,0.3-6.9,0.4-14.4c0-2.3,0.1-4.6,0-6.8
	c0,0-0.2-0.9-0.4-1.1c0,0,0-1,1.1-0.6c0,0,0.9,0.1,0.7,1.5l0.1,2.2c0,0-0.2,1,1.5,0.7c0,0,1.7,0.3,1.8,0.9c0,0,0.5,1.3-1.5,1.1h-1.5
	c0,0-0.6,0.4-0.4,1.1L75,56.9c0,0-0.1,1.6,1.4,1.5c0,0,1.6-0.1,1.9,0.4c0,0,1.1,1.6-1.3,1.4c0,0-1.5-0.1-1.8,0.2
	c0,0-0.3,0.3-0.4,3.3c0,0,0.1,1.8-1.2,1.6c0,0-8.8,0.1-9.6-0.1C64,65.3,63.2,65.5,63,64.8"/>
<path class="st0" d="M51.7,39.9l-0.2,20.3c0,0-0.1,0.9,1.5,1.1c0,0,1.8,0.2,2.3,0c0,0,1.2-0.1,4.3,0.1c0,0,0.8,0.8,0.8-0.2
	c0,0,0.5-16.4,0.3-19.8c0,0-0.1-1.5-1.1-1.5c0,0-4.8,0.4-5.2,0l-1.9-0.5C52.4,39.3,51.6,39.4,51.7,39.9"/>
<path class="st0" d="M61.6,40.9c0,0-0.2,9.5-0.1,9.8l-0.1,8l-0.3,2.8c0,0,0.4,0.6,0.7,0.2c0,0,2-0.5,3.3-0.3c0,0,4,0.4,4.9-0.3
	c0,0,0.6,0.3,0.8-0.7c0,0,0.2-17.7,0.1-18c0,0,0.2-2.5,0.1-2.8c0,0-0.1-0.6-1.1-0.1c0,0,0.1,0.5-5.9,0.3C64,40,61.8,39.9,61.6,40.9"
	/>
<path class="st0" d="M71.7,40.7l-0.1,19.9c0,0,0.5,1.8,1.3,1.6c0,0,0.1-0.4,0.2-1l0.3-19C73.4,42.2,72.7,39.1,71.7,40.7"/>
<path class="st4" d="M71.7,40.7l-0.1,19.9c0,0,0.5,1.8,1.3,1.6c0,0,0.1-0.4,0.2-1l0.3-19C73.4,42.2,72.7,39.1,71.7,40.7z"/>
<path class="st2" d="M63.9,46.6c-0.2-0.5,1.1-0.6,1.1-0.6l0.6,0.1c0.4-0.1,0.9,0.1,0.9,0.1c0.4,0.7-0.3,1.1-0.3,1.1L66,48.2
	c-0.1,0.7,0,6.7,0,6.7c0.1,0.3,0.6,0.9,0.6,0.9c0,0.6-0.7,0.4-0.7,0.4l-1.8,0.1c-0.6-0.1-0.4-0.7-0.4-0.7c0.6-0.3,0.8-1.5,0.8-1.5
	v-6.2L63.9,46.6z"/>
<path class="st2" d="M55.4,52.5l-0.1,2l0.6,0.9c0.4,0.5-0.3,0.9-0.3,0.9l-2-0.2c-0.4-0.2,0-0.8,0-0.8c0.5-0.3,0.6-1.1,0.6-1.1
	l-0.1-3.7l0.1-2.7c0-0.3-0.5-0.9-0.5-0.9c-0.4-0.1-0.3-0.6-0.3-0.6c0.1-0.3,1.2-0.1,1.2-0.1h2.7c2.5,0.8,2.1,2.6,2.1,2.6
	c0.2,1.8-1.8,2.6-1.8,2.6l-0.1,1l1.8,2.9c0.3,0.3,0.3,0.5,0.3,0.5c-0.3,0.7-1.3,0-1.3,0L56,52.3C55.8,52,55.4,52.5,55.4,52.5
	 M55.5,47.5c0.1,1.4,0.1,3.3,0.1,3.3c1.2,0.9,1.9-0.4,1.9-0.4c1.6-1.5,0-2.9-0.3-3.3c-0.3-0.4-1.5-0.1-1.5-0.1L55.5,47.5z"/>
<path class="st2" d="M42.3,77c0,0,0.4-0.2,0.6-0.5c0,0,1.3-0.1,1.5-0.3l4.2,0.3c0,0,4.1,0.3,5.9-1c0,0,0.6,0,1.1,0.2
	c0,0,0.9,0.2,1.1,0.6l2.4-0.1c0,0,1.4,0.4,1.3,1.3v1.1c0,0-0.3,2.3,0.4,2.4h1.8c0,0,1.5,0.7,1.3,1.6c0,0,0.1,1.3-1.3,1.5
	c0,0-1.3,0.4-1.8,0.3c0,0-0.4,0.6-0.5,1.3L60.1,94c0,0-0.1,0.9,1.2,0.8c0,0,2-0.2,2.5,0.9c0,0,0.5,1.8-0.5,2.1l-0.8,0.4l-1.6,0.3
	c0,0-0.7,0.1-0.8,1.3v2.2c0,0,0.1,1.5-1.1,1.5l-1.8,0.1c0,0-0.4,0.4-1.3,0.1c0,0-10.7,0.2-11.1,0.1l-1.3,0.3c0,0-1.4,1.3-2.5,0.3
	l-0.9-0.7c0,0-0.6,0.1-0.9,0.1c-0.3-0.1-11.9,0.1-11.9,0.1s-2.5,0.3-2.6-0.6c0,0-0.3-3.2-0.2-3.6c0,0,0-0.9-0.6-1
	c0,0-2.5-0.1-2.5-0.4c0,0-1.3-0.9-0.9-1.9c0,0,0.4-1.3,1.8-1.4c0,0,2,0.3,2-0.3c0,0,0.1-0.4,0.1-1c0,0,0.1-7.5,0.1-8
	c0,0,0.2-0.9-0.6-0.9c0,0-0.9,0.3-1.4-0.1c0,0-1.5,0.1-1.8-1.1c0,0-0.3-0.8,0.1-1.4c0,0,0.7-1.4,2.7-0.9c0,0,1.1,0.3,1.3-0.5l-0.1-3
	c0,0-0.3-0.8,1.3-1.3c0,0,2,0.6,2.6-0.4c0,0,0.7-1.4,1.3-0.4c0,0,1.2,1.1,4.5,1c0,0,5.7-0.4,5.8-0.2c0,0,1.4,0.2,1.8,0.6L42.3,77z"
	/>
<path class="st3" d="M42.3,76.9c0,0,0.4-0.2,0.6-0.5c0,0,1.3-0.1,1.5-0.3l4.2,0.3c0,0,4.1,0.3,5.9-1c0,0,0.6,0,1.1,0.2
	c0,0,0.9,0.2,1.1,0.6l2.4-0.1c0,0,1.4,0.4,1.3,1.3v1.1c0,0-0.3,2.3,0.4,2.4h1.8c0,0,1.5,0.7,1.3,1.6c0,0,0.1,1.3-1.3,1.5
	c0,0-1.3,0.4-1.8,0.3c0,0-0.4,0.6-0.5,1.3L60.1,94c0,0-0.1,0.9,1.2,0.8c0,0,2-0.2,2.5,0.9c0,0,0.5,1.8-0.5,2.1l-0.8,0.4l-1.6,0.3
	c0,0-0.7,0.1-0.8,1.3v2.2c0,0,0.1,1.5-1.1,1.5l-1.8,0.1c0,0-0.4,0.4-1.3,0.1c0,0-10.7,0.2-11.1,0.1l-1.3,0.3c0,0-1.4,1.3-2.5,0.3
	l-0.9-0.7c0,0-0.6,0.1-0.9,0.1c-0.3-0.1-11.9,0.1-11.9,0.1s-2.5,0.3-2.6-0.6c0,0-0.3-3.2-0.2-3.6c0,0,0-0.9-0.6-1
	c0,0-2.5-0.1-2.5-0.4c0,0-1.3-0.9-0.9-1.9c0,0,0.4-1.3,1.8-1.4c0,0,2,0.3,2-0.3c0,0,0.1-0.4,0.1-1c0,0,0.1-7.5,0.1-8
	c0,0,0.2-0.9-0.6-0.9c0,0-0.9,0.3-1.4-0.1c0,0-1.5,0.1-1.8-1.1c0,0-0.3-0.8,0.1-1.4c0,0,0.7-1.4,2.7-0.9c0,0,1.1,0.3,1.3-0.5l-0.1-3
	c0,0-0.3-0.8,1.3-1.3c0,0,2,0.6,2.6-0.4c0,0,0.7-1.4,1.3-0.4c0,0,1.2,1.1,4.5,1c0,0,5.7-0.4,5.8-0.2c0,0,1.4,0.2,1.8,0.6L42.3,76.9z
	"/>
<path class="st0" d="M43.9,101.8c0,0,0.8-0.4,1.3-0.2c0.5,0.1,7.9-0.1,7.9-0.1s3.2,0.2,3.7-0.2l0.8-0.3c0,0,0.3-0.4,0.3-0.9
	c0-0.5,0.1-2.2,0.1-2.2l0.2-0.6c0,0-0.1-0.6,0-17.5c0,0,0.2-1.3-0.6-2.1c0,0,0-0.5,0.3-0.4c0.3,0.1,0.1,0.1,0.1,0.1s1.1-0.3,1.3,0.1
	c0,0,0.5,1.5,0.1,2.4c0,0-0.1,1.8,0.8,1.8c0,0,0.4,0.4,1.1,0.2c0,0,1.6,0.2,1.6,0.7c0,0,0,1.1-1.1,0.9l-1.5,0.1c0,0-1,0.2-0.9,1.4
	c0.1,1.2-0.1,9.8-0.1,9.8s0,1,1.6,1c0,0,2-0.1,2,0.5c0,0,0.5,1.3-0.9,1.3c0,0-2.7-0.1-2.5,0.7c0,0-0.2,1.8-0.3,2.1
	c0,0,0.3,1.5-0.1,1.7c0,0-0.2,0.8-1.9,0.7c0,0-10.8-0.1-12.6,0.1C44.7,102.8,43.7,102.7,43.9,101.8"/>
<path class="st0" d="M42,100.6c0,0,1.1,0.2,1.1,1.2c0,1,0.1,1.6-0.6,1.7c-0.6,0.1-1.3-0.1-1.5-0.9C40.8,101.8,41.1,100.8,42,100.6"
	/>
<path class="st0" d="M43.2,100.1c0,0,1.1-0.8,1.6-0.6c0,0,5.7,0.4,7.5,0.1c1.8-0.3,0.7-0.1,0.7-0.1s1.5,0,2-0.6c0,0,0.4-0.1,0.7,0.3
	l0.9,1c0,0,0.1,0.6-1,0.6c0,0-10.3,0-10.6,0.1C45,100.8,43,101.2,43.2,100.1"/>
<path class="st4" d="M43.2,100.1c0,0,1.1-0.8,1.6-0.6c0,0,5.7,0.4,7.5,0.1c1.8-0.3,0.7-0.1,0.7-0.1s1.5,0,2-0.6c0,0,0.4-0.1,0.7,0.3
	l0.9,1c0,0,0.1,0.6-1,0.6c0,0-10.3,0-10.6,0.1C45,100.8,43,101.2,43.2,100.1z"/>
<path class="st0" d="M28.3,77.7c0,0,0.4,0,0.4,0.8l-0.1,19.1c0,0,0.2,1.3-0.9,2.1c0,0-0.6,0.7-0.6-0.4l0.3-19.4
	C27.3,79.8,27.4,78.3,28.3,77.7"/>
<path class="st4" d="M28.3,77.7c0,0,0.4,0,0.4,0.8l-0.1,19.1c0,0,0.2,1.3-0.9,2.1c0,0-0.6,0.7-0.6-0.4l0.3-19.4
	C27.3,79.8,27.4,78.3,28.3,77.7z"/>
<path class="st0" d="M27.3,77.8c0,0-0.8,1.4-0.7,1.7l-0.1,4.2c0,0-0.1,2.7,0,3S26.4,95,26.4,95s-0.1,1.5,0,2v3.4c0,0-0.1,1.5,1,1.1
	c0,0,11.1-0.3,11.8-0.1c0,0,1,0.2,0.6,0.7c0,0,0,0.4-0.7,0.3c0,0-5.2,0.5-10,0.3c0,0-3.2,0.2-3.3-0.2c0,0-0.5-0.1-0.5-1.9
	c0,0,0-1.7-0.1-2c0,0,0.1-0.9-1.5-1.1c0,0-2.2,0.4-2.3-0.9c0,0,0.3-0.9,2.5-0.8c0,0,1.6,0.3,1.3-1l0.2-9.3c0,0,0.2-1.6-0.9-1.7
	c0,0-1-0.1-1.3,0.1c0,0-1.8,0-1.7-1.1c0,0,0.6-1.1,2.5-0.9c0,0,1.4,0.3,1.5-1.3c0,0-0.1-3.2,0.7-3.3C26.1,77.3,27.7,77.4,27.3,77.8"
	/>
<path class="st0" d="M29.2,98.7c0,0,0.9,0.9,2.3,0.9l8.6,0.1c0,0,0.9,0.1,0.9,0.6c0,0-0.1,0.8-1.3,0.5l-10.3-0.1l-1.1,0.1
	c0,0-0.8-0.1,0.4-1.6L29.2,98.7z"/>
<path class="st4" d="M29.2,98.7c0,0,0.9,0.9,2.3,0.9l8.6,0.1c0,0,0.9,0.1,0.9,0.6c0,0-0.1,0.8-1.3,0.5l-10.3-0.1l-1.1,0.1
	c0,0-0.8-0.1,0.4-1.6L29.2,98.7z"/>
<path class="st0" d="M55.7,97.9c0,0,0.8,1.5,1.1,1.7c0,0,0.7,0.8,0.5-0.6l0.1-18.2c0,0-0.2-0.6,0-1.6l-0.8-1.4c0,0-0.8-0.6-0.8,0.4
	l-0.1,19.4L55.7,97.9z"/>
<path class="st4" d="M55.7,97.9c0,0,0.8,1.5,1.1,1.7c0,0,0.7,0.8,0.5-0.6l0.1-18.2c0,0-0.2-0.6,0-1.6l-0.8-1.4c0,0-0.8-0.6-0.8,0.4
	l-0.1,19.4L55.7,97.9z"/>
<path class="st0" d="M41.6,89.2c0,0,0.1,1.5-0.1,3c-0.1,0.8,0.3,4.5-0.1,6.4c0,0-0.1,0.6-1.4,0.1c0,0-8.1,0.2-8.3-0.1
	c0,0-2.2,0.1-2.4-1.1c0,0,0.3-8.6,0.1-9c0,0-0.1-4.7,0-5.2c0,0,0.2-4.4,0.1-4.9c0,0,0.1-1-0.1-1.5c0,0,0-0.6,1.1-0.3
	c0,0,0.4,0.7,2.5,0.4c0,0,1.5,0.2,3,0.1c0,0,3.2-0.3,4,0c0,0,1.3-0.3,1.6,1.1l-0.1,3.9l0.4,1.3l0.4-0.3l0.2-0.9l0.1-4.2
	c0,0,0.3-0.8,1.3-0.9c0,0,1.6-0.2,1.8-0.1c0.2,0.1,3.7,0.3,4.6,0.1c0.9-0.2,1.1,0.6,4-0.8c0,0,0.8,0.1,0.8,0.6c0,0-0.3,5.4,0,6.4
	c0,0,0,9.8-0.2,10.5l0.1,3.2c0,0,0.1,1.4-2.1,1.5c0,0,1.4,0.2-7.3-0.1c0,0-1.4-0.1-2.9,0.6c0,0-0.3-0.1-0.3-0.9c0,0,0.2-3,0-5.9
	l-0.1-3.2L41.6,89.2z"/>
<path class="st2" d="M36,84.8c0,0,0.2,4.7,0,5.3l-0.1,1c0,0,0.3,0.7,0.6,0.9c0,0,0.3,0.9-0.4,0.8c0,0-1.6-0.1-2-0.1c0,0-0.9,0,0-1.1
	c0,0,0.3-0.4,0.2-1.6c0,0,0-5.3,0.1-5.6c0,0,0.1-0.7-0.3-0.9l-0.8,0.1l-0.9,0.9c0,0-0.2,0.9-0.6-0.1v-0.5l0.6-1.5l0.4-0.1
	c0,0,0.6,0.4,1.1,0.5h3l1.1-0.5c0,0,0.4,0.1,0.3,0.6c0,0,0.2,1.5-0.6,1.6c0,0-0.5-0.2-0.8-0.9C36.9,83.7,36,83.3,36,84.8"/>
<path class="st2" d="M49.9,83.1c0,0-2.4-0.2-2.5,2.4c0,0-0.3,1.8,2.4,2.9c0,0,2,0.9,1.8,2.1c0,0-0.3,2.1-2.3,1.1c0,0-1-0.5-0.9-1.1
	c0,0-0.3-0.7-0.7-0.6c0,0-0.4,0.1-0.2,2.2c0,0,0,0.8,0.9,0l0.5,0.1c0,0,1.7,1.4,3.2-0.3c0,0,1.6-1.4,0.4-3.2c0,0-0.8-1.3-2.3-1.9
	c0,0-1.4-0.6-1.7-1.7c0,0,0.4-1.9,2.1-0.9c0,0,0.6,0.8,1,0.9c0,0,0.5,0,0.4-1.1l-0.1-0.9c0,0-0.1-0.7-1,0
	C50.9,83.1,50.1,83.4,49.9,83.1"/>
<path class="st2" d="M42.2,81.7c0.4,0.3,0.5,0.9,0.5,0.9c1.3,3.3,2.3,8.2,2.3,8.2c0.3,0.6,0.9,1.1,0.9,1.1c1.1,0.4,0,0.7,0,0.7
	c-0.4,0.2-1.9-0.1-1.9-0.1c-0.8-0.1-0.4-0.4-0.4-0.4c0.3-0.3,0.1-1.6,0.1-1.6c-0.1-0.5-0.6-1.3-0.6-1.3c-0.3-0.1-0.7,0.4-0.7,0.4
	s-0.7,0.3-0.8,0c-0.1-0.3-0.5-0.5-0.5-0.5c-0.8,0-1.1,1.9-1.1,1.9c0.4,1.6,0,1.3,0,1.3c-0.4,0.5-1.6,0.1-1.6,0.1
	c-0.6-0.1-0.2-0.6-0.2-0.6c0.7-0.1,0.9-0.9,0.9-0.9c0.3-0.4,2.3-8.6,2.3-8.6C41.6,82.2,41.8,81.4,42.2,81.7 M41.2,85.9
	c-0.1,0.3-0.5,2.1-0.5,2.1l0.4,0.6c0,0,1,0.1,1.4,0.1c0.4,0,0.4-0.3,0.4-0.6c0-0.3-0.7-2.2-0.7-2.2l-0.3-0.4L41.2,85.9z"/>
<path class="st2" d="M25.1,66.5c0,0-0.7,2.2-3.8-0.1l-10.6-0.3c0,0-1.4,0.4-1.6-1c0,0,0.3-2.9,0.1-3.2c0,0,0.1-0.8-1.3-0.8
	c0,0-2.1,0.3-2.2-1.6c0,0-0.4-2,2.6-2c0,0,0.9,0.4,1-0.8c0,0-0.1-8.2-0.1-8.8c0,0,0.3-0.7-1.2-0.9c0,0-2.1,0.4-2.3-1
	c0,0-0.1-2.1,1.3-2.2c0,0,1.7,0.1,2-0.3c0,0,0.4,0.2,0.3-1.3l0.1-2.6c0,0,0.2-0.7,1.3-0.6c0,0,2,0.1,2.2-0.1c0,0,0.4-0.6,0.6-0.8
	c0,0,1-0.1,1.2,0.2c0,0,1.5,1,7.3,0.6c0,0,0.9,0,1.1,0.3c0,0,1.1,0.8,1.7-0.1c0,0,0.9-0.2,3.8-0.1c0,0,3.1,0.8,5.2-0.9l0.7,0.1
	c0,0,0.9,1.4,1.5,1c0,0,1.9-0.2,2.2,0.2c0,0,0.6,0.9,0.3,3.4c0,0-0.4,1.1,1.5,1.1c0,0,2.1-0.4,1.8,1.6c0,0,0.6,2.2-2.9,1.9
	c0,0-0.4,0.6-0.4,1.1c0,0-0.1,7.2-0.1,8c0,0-0.1,1.1,1.5,1.1c0,0,2-0.1,2.1,1.7c0,0,0.3,2.4-2.6,2c0,0-0.9,0.1-1,0.7l-0.1,3.2
	c0,0,0.1,1.6-1.7,1.2c-0.3,0-9.8,0.2-10.7-0.1C25.7,66.3,25.3,66.2,25.1,66.5"/>
<path class="st3" d="M25.1,66.5c0,0-0.7,2.2-3.8-0.1l-10.6-0.3c0,0-1.4,0.4-1.6-1c0,0,0.3-2.9,0.1-3.2c0,0,0.1-0.8-1.3-0.8
	c0,0-2.1,0.3-2.2-1.6c0,0-0.4-2,2.6-2c0,0,0.9,0.4,1-0.8c0,0-0.1-8.2-0.1-8.8c0,0,0.3-0.7-1.2-0.9c0,0-2.1,0.4-2.3-1
	c0,0-0.1-2.1,1.3-2.2c0,0,1.7,0.1,2-0.3c0,0,0.4,0.2,0.3-1.3l0.1-2.6c0,0,0.2-0.7,1.3-0.6c0,0,2,0.1,2.2-0.1c0,0,0.4-0.6,0.6-0.8
	c0,0,1-0.1,1.2,0.2c0,0,1.5,1,7.3,0.6c0,0,0.9,0,1.1,0.3c0,0,1.1,0.8,1.7-0.1c0,0,0.9-0.2,3.8-0.1c0,0,3.1,0.8,5.2-0.9l0.7,0.1
	c0,0,0.9,1.4,1.5,1c0,0,1.9-0.2,2.2,0.2c0,0,0.6,0.9,0.3,3.4c0,0-0.4,1.1,1.5,1.1c0,0,2.1-0.4,1.8,1.6c0,0,0.6,2.2-2.9,1.9
	c0,0-0.4,0.6-0.4,1.1c0,0-0.1,7.2-0.1,8c0,0-0.1,1.1,1.5,1.1c0,0,2-0.1,2.1,1.7c0,0,0.3,2.4-2.6,2c0,0-0.9,0.1-1,0.7l-0.1,3.2
	c0,0,0.1,1.6-1.7,1.2c-0.3,0-9.8,0.2-10.7-0.1C25.7,66.3,25.3,66.2,25.1,66.5z"/>
<path class="st0" d="M13.2,40.5c0,0,0.1,1.3,0.1,1.6c0,0.3-0.2,18.2-0.2,18.2s0.2,1.4-1,2.1c0,0-0.3,0.1-0.4-0.8l0.1-18.9
	C11.9,42.7,12,40.3,13.2,40.5"/>
<path class="st4" d="M13.2,40.5c0,0,0.1,1.3,0.1,1.6c0,0.3-0.2,18.2-0.2,18.2s0.2,1.4-1,2.1c0,0-0.3,0.1-0.4-0.8l0.1-18.9
	C11.9,42.7,12,40.3,13.2,40.5z"/>
<path class="st0" d="M11.1,62.5c0,0,0.1-17.8,0.1-18.1c-0.1-0.3,0.1,0.3,0.1,0.3s-0.2-3.1,0.6-4.4c0,0-0.3-1.1-1.7,0.3l-0.1,2.6
	c0,0,0,1.5-1.3,1.4c0,0-1.5-0.1-2.2,0.6c0,0-0.4,1.4,1.1,1.1c0,0,2.3,0,2.4,0.9l-0.1,9.5c0,0,0.5,1.6-1.3,1.6c0,0-2.1-0.1-2.1,1.2
	c0,0,0.4,1.1,2.3,0.8c0,0,1.3,0.3,1.3,1.5v2.4c0,0-0.1,0.9,1.1,1h9.8c0,0,0.5,0.1,0.5-0.6c0,0-0.1-0.5-0.8-0.5l-8.2-0.1
	C12.6,64.1,11.2,64.5,11.1,62.5"/>
<path class="st0" d="M12.8,62.7c0,0-0.3,0.9,0.7,0.7H20l1.8,0.4c0,0,1.8-0.4,0-1.4c0,0-5.8,0.1-6.3-0.1c0,0-1.2-0.3-1.4-0.4
	C14,61.9,13.4,61.6,12.8,62.7"/>
<path class="st4" d="M12.8,62.7c0,0-0.3,0.9,0.7,0.7H20l1.8,0.4c0,0,1.8-0.4,0-1.4c0,0-5.8,0.1-6.3-0.1c0,0-1.2-0.3-1.4-0.4
	C14,61.9,13.4,61.6,12.8,62.7z"/>
<path class="st0" d="M23.6,63.6c0,0-1.2,0-1.1,1.6c0,0,0.1,1.2,1.4,1.2c0,0,1.1-0.2,1-1.4C24.9,64.9,24.2,63.3,23.6,63.6"/>
<path class="st0" d="M24.5,62.9c0,0,0.6-0.6,0.9-0.6c0,0,6.3,0.6,7.4-0.2c0,0,0.9-0.2,1.2,0c0,0,0.9,0.8,0.9,1.2
	c0,0-0.1,0.6-1.2,0.3c0,0-7.1,0.1-7.5,0.1C26.3,63.6,24.3,64.1,24.5,62.9"/>
<path class="st4" d="M24.5,62.9c0,0,0.6-0.6,0.9-0.6c0,0,6.3,0.6,7.4-0.2c0,0,0.9-0.2,1.2,0c0,0,0.9,0.8,0.9,1.2
	c0,0-0.1,0.6-1.2,0.3c0,0-7.1,0.1-7.5,0.1C26.3,63.6,24.3,64.1,24.5,62.9z"/>
<path class="st0" d="M25.5,64.8c0,0,0-0.5,0.9-0.5l8.8-0.1c0,0,0.8,0.4,0.8-1.1c0,0,0.3-6.9,0.4-14.5c0-2.3,0.1-4.6,0-6.8
	c0,0-0.2-0.9-0.4-1.1c0,0,0-1,1.1-0.6c0,0,0.9,0.1,0.7,1.5l0.1,2.2c0,0-0.2,0.9,1.5,0.7c0,0,1.7,0.2,1.8,0.9c0,0,0.5,1.3-1.5,1.1
	h-1.4c0,0-0.6,0.4-0.4,1.1l-0.2,9.1c0,0-0.1,1.6,1.4,1.5c0,0,1.6-0.1,1.9,0.4c0,0,1.1,1.6-1.3,1.5c0,0-1.4-0.1-1.8,0.2
	c0,0-0.2,0.3-0.4,3.3c0,0,0.1,1.8-1.2,1.6c0,0-8.8,0.1-9.6-0.1C26.5,65.3,25.6,65.5,25.5,64.8"/>
<path class="st0" d="M14.1,39.9L14,60.1c0,0-0.1,0.9,1.5,1.1c0,0,1.8,0.2,2.3,0c0,0,1.2-0.1,4.3,0.1c0,0,0.8,0.8,0.8-0.2
	c0,0,0.5-16.4,0.3-19.8c0,0-0.1-1.4-1.1-1.5c0,0-4.8,0.4-5.2,0l-1.9-0.5C14.8,39.3,14.1,39.4,14.1,39.9"/>
<path class="st0" d="M34.1,40.7l-0.1,19.9c0,0,0.5,1.8,1.3,1.6c0,0,0.1-0.4,0.2-1l0.3-19C35.8,42.2,35.2,39.1,34.1,40.7"/>
<path class="st4" d="M34.1,40.7l-0.1,19.9c0,0,0.5,1.8,1.3,1.6c0,0,0.1-0.4,0.2-1l0.3-19C35.8,42.2,35.2,39.1,34.1,40.7z"/>
<path class="st0" d="M24.1,40.8c0,0-0.2,9.5-0.1,9.8l-0.1,8l-0.3,2.8c0,0,0.4,0.6,0.7,0.2c0,0,2-0.5,3.3-0.3c0,0,4,0.4,4.9-0.3
	c0,0,0.6,0.3,0.8-0.7c0,0,0.3-17.7,0.1-18c0,0,0.3-2.5,0.1-2.8c0,0-0.1-0.6-1.1-0.1c0,0,0.1,0.5-5.9,0.3
	C26.5,39.9,24.2,39.8,24.1,40.8"/>
<path class="st2" d="M22.2,46.7l-0.6,1.2c0,0-1.4,6.1-2.1,7.4c0,0-0.1,1.3-1.2,0.3c0,0-2.5-7.8-2.6-8l-0.8-0.6c0,0-0.5-0.7,0.4-0.8
	l2.3,0.1c0,0,0.8,0.6-0.3,1.3c0,0,0.1,1,1.4,4.9c0,0,0.4,1.4,0.8,0.4l1.3-4.5L20.5,47c0,0-0.4-0.6,0.2-0.7
	C20.7,46.3,22,46.2,22.2,46.7"/>
<path class="st2" d="M25.8,47.7l-0.1,6.7l-0.2,0.5c0,0-0.6,0.8-0.2,0.9c0,0-0.6,0.4,4,0.4c0,0,1.8,0.3,1.3-2c0,0-0.2-0.8-0.8,0.4
	c0,0-0.2,1-2.5,0.7c0,0-0.5-0.4-0.5-0.9v-2.8c0,0-0.1-0.7,1-0.6c0,0,1.2,0.8,1.4,0.4c0,0,0.4-1,0-1.6c0,0-0.6-0.1-0.6,0.2
	c0,0-0.4,0.8-1.5,0.3c0,0-0.5-1-0.2-1.8c0,0-0.1-1.6,0.9-1.5c0,0,1.3,0.3,1.4,0.6c0,0,0.3,0.8,0.6-0.1l-0.3-1.1c0,0-0.2-0.4-0.5-0.3
	c0,0-2.1,0.3-2.4,0.1l-1.7,0.2c0,0-0.2,0.6,0.5,0.9C25.6,47.3,25.8,47.4,25.8,47.7"/>
</svg>
