<?xml version="1.0" encoding="utf-8"?>
<!-- Generator: Adobe Illustrator 19.1.0, SVG Export Plug-In . SVG Version: 6.00 Build 0)  -->
<svg version="1.1" id="Layer_1" xmlns="http://www.w3.org/2000/svg" xmlns:xlink="http://www.w3.org/1999/xlink" x="0px" y="0px"
	 viewBox="0 0 200 200" style="enable-background:new 0 0 200 200;" xml:space="preserve">
<style type="text/css">
	.st0{fill:#A61D31;stroke:#1E1E1E;stroke-width:1.4001;}
	.st1{fill:#FFFFFF;}
	.st2{fill:#1E1E1E;stroke:#1E1E1E;stroke-width:0.7;}
	.st3{fill:#FFFFFF;stroke:#000000;stroke-width:0.35;}
	.st4{fill:#1E1E1E;}
	.st5{fill:#FFFFFF;stroke:#1E1E1E;stroke-width:0.35;}
	.st6{fill:#1E1E1E;stroke:#000000;stroke-width:0.7;}
</style>
<g>
	<path class="st0" d="M50,43.1h100c0,0,0,18.6,0,37.8c0,17.3-6.4,54-49.6,81.3c0,0-46.8-19.5-50.4-81.3C50,80.8,50,60.5,50,43.1z"/>
	<path class="st1" d="M126.6,93.2c0,0-0.9,2.8-4.9-0.1l-13.6-0.3c0,0-1.8,0.6-2-1.3c0,0,0.3-3.7,0.2-4.1c0,0,0.1-1.1-1.7-1.1
		c0,0-2.8,0.3-2.8-2.1c0,0-0.5-2.6,3.3-2.5c0,0,1.2,0.6,1.3-1c0,0-0.2-10.5-0.1-11.3c0,0,0.3-1-1.5-1.1c0,0-2.7,0.6-3-1.2
		c0,0-0.2-2.7,1.6-2.8c0,0,2.2,0.2,2.6-0.4c0,0,0.5,0.3,0.4-1.6l0.1-3.3c0,0,0.2-0.9,1.6-0.8c0,0,2.5,0.2,2.8-0.1
		c0,0,0.6-0.7,0.7-1.1c0,0,1.3-0.1,1.5,0.2c0,0,1.9,1.3,9.3,0.8c0,0,1.1,0,1.4,0.3c0,0,1.4,1.1,2.2-0.1c0,0,1.2-0.2,4.9-0.2
		c0,0,4,1.1,6.7-1.2l0.9,0.2c0,0,1.1,1.9,1.9,1.3c0,0,2.4-0.2,2.8,0.2c0,0,0.8,1.2,0.4,4.4c0,0-0.5,1.4,1.9,1.4c0,0,2.7-0.5,2.3,2
		c0,0,0.7,2.8-3.7,2.4c0,0-0.6,0.8-0.5,1.4c0,0-0.1,9.2-0.2,10.3c0,0-0.1,1.5,1.9,1.4c0,0,2.6-0.2,2.7,2.2c0,0,0.3,3.1-3.4,2.5
		c0,0-1.1,0.2-1.3,0.9l-0.2,4.1c0,0,0.1,2-2.2,1.5c-0.3,0-12.6,0.2-13.7-0.1C127.3,92.9,126.8,92.8,126.6,93.2z"/>
	<path class="st1" d="M100.3,106.9c0,0,0.6-0.2,0.7-0.6c0,0,1.7-0.2,1.9-0.4l5.3,0.4c0,0,5.3,0.4,7.5-1.2c0,0,0.8,0,1.4,0.2
		c0,0,1.1,0.2,1.5,0.7l3.1-0.1c0,0,1.8,0.6,1.6,1.7v1.5c0,0-0.3,2.9,0.5,3.1h2.3c0,0,1.9,0.9,1.7,2c0,0,0.1,1.6-1.6,1.9
		c0,0-1.7,0.5-2.3,0.4c0,0-0.6,0.7-0.6,1.6l-0.2,10.6c0,0-0.2,1.1,1.5,1c0,0,2.5-0.2,3.2,1.1c0,0,0.6,2.4-0.6,2.8l-1,0.5l-2.1,0.3
		c0,0-0.9,0.1-1,1.6v2.8c0,0,0.1,1.9-1.5,1.9l-2.3,0.2c0,0-0.6,0.5-1.7,0.2c0,0-13.8,0.2-14.3,0.1l-1.6,0.3c0,0-1.8,1.6-3.2,0.4
		l-1.1-0.9c0,0-0.8,0.2-1.1,0.1c-0.3-0.1-15.2,0.2-15.2,0.2s-3.2,0.3-3.4-0.7c0,0-0.4-4.1-0.2-4.6c0,0,0-1.2-0.7-1.3
		c0,0-3.2-0.2-3.2-0.5c0,0-1.7-1.2-1.2-2.4c0,0,0.6-1.6,2.3-1.8c0,0,2.6,0.4,2.6-0.3c0,0,0.2-0.5,0.2-1.3c0,0,0.2-9.6,0.1-10.3
		c0,0,0.2-1.2-0.8-1.2c0,0-1.1,0.3-1.9-0.2c0,0-1.9,0.1-2.3-1.5c0,0-0.3-1,0.2-1.8c0,0,0.9-1.8,3.5-1.2c0,0,1.5,0.4,1.6-0.6
		l-0.1-3.9c0,0-0.3-1.1,1.7-1.6c0,0,2.6,0.7,3.4-0.6c0,0,0.9-1.8,1.6-0.6c0,0,1.5,1.5,5.8,1.3c0,0,7.3-0.6,7.5-0.2
		c0,0,1.8,0.2,2.3,0.8L100.3,106.9z"/>
	<path class="st1" d="M78.2,93.4c0,0-0.9,2.8-4.9-0.1L59.7,93c0,0-1.8,0.6-2-1.3c0,0,0.3-3.7,0.2-4.1c0,0,0.1-1.1-1.7-1.1
		c0,0-2.8,0.3-2.8-2.1c0,0-0.5-2.6,3.3-2.5c0,0,1.2,0.6,1.3-1c0,0-0.2-10.5-0.1-11.3c0,0,0.3-1-1.5-1.1c0,0-2.7,0.6-3-1.2
		c0,0-0.2-2.7,1.6-2.8c0,0,2.2,0.2,2.6-0.4c0,0,0.5,0.3,0.4-1.6l0.1-3.3c0,0,0.2-0.9,1.6-0.8c0,0,2.5,0.2,2.8-0.1
		c0,0,0.6-0.7,0.7-1.1c0,0,1.3-0.1,1.5,0.2c0,0,1.9,1.3,9.3,0.8c0,0,1.1,0,1.4,0.3c0,0,1.4,1.1,2.2-0.1c0,0,1.2-0.2,4.9-0.2
		c0,0,4,1.1,6.7-1.2l0.9,0.2c0,0,1.1,1.9,1.9,1.3c0,0,2.4-0.2,2.8,0.2c0,0,0.8,1.2,0.4,4.4c0,0-0.5,1.4,1.9,1.4c0,0,2.7-0.5,2.3,2
		c0,0,0.7,2.8-3.7,2.4c0,0-0.6,0.8-0.5,1.4c0,0-0.1,9.2-0.2,10.3c0,0-0.1,1.5,1.9,1.4c0,0,2.6-0.2,2.7,2.2c0,0,0.3,3.1-3.4,2.5
		c0,0-1.1,0.2-1.3,0.9l-0.2,4.1c0,0,0.1,2-2.2,1.5c-0.3,0-12.6,0.2-13.7-0.1C78.9,93.1,78.3,93,78.2,93.4z"/>
	<path class="st2" d="M126.6,93.2c0,0-0.9,2.8-4.9-0.1l-13.6-0.3c0,0-1.8,0.6-2-1.3c0,0,0.3-3.7,0.2-4.1c0,0,0.1-1.1-1.7-1.1
		c0,0-2.8,0.3-2.8-2.1c0,0-0.5-2.6,3.3-2.5c0,0,1.2,0.6,1.3-1c0,0-0.2-10.5-0.1-11.3c0,0,0.3-1-1.5-1.1c0,0-2.7,0.6-3-1.2
		c0,0-0.2-2.7,1.6-2.8c0,0,2.2,0.2,2.6-0.4c0,0,0.5,0.3,0.4-1.6l0.1-3.3c0,0,0.2-0.9,1.6-0.8c0,0,2.5,0.2,2.8-0.1
		c0,0,0.6-0.7,0.7-1.1c0,0,1.3-0.1,1.5,0.2c0,0,1.9,1.3,9.3,0.8c0,0,1.1,0,1.4,0.3c0,0,1.4,1.1,2.2-0.1c0,0,1.2-0.2,4.9-0.2
		c0,0,4,1.1,6.7-1.2l0.9,0.2c0,0,1.1,1.9,1.9,1.3c0,0,2.4-0.2,2.8,0.2c0,0,0.8,1.2,0.4,4.4c0,0-0.5,1.4,1.9,1.4c0,0,2.7-0.5,2.3,2
		c0,0,0.7,2.8-3.7,2.4c0,0-0.6,0.8-0.5,1.4c0,0-0.1,9.2-0.2,10.3c0,0-0.1,1.5,1.9,1.4c0,0,2.6-0.2,2.7,2.2c0,0,0.3,3.1-3.4,2.5
		c0,0-1.1,0.2-1.3,0.9l-0.2,4.1c0,0,0.1,2-2.2,1.5c-0.3,0-12.6,0.2-13.7-0.1C127.3,92.9,126.8,92.8,126.6,93.2z"/>
	<path class="st3" d="M111.3,59.8c0,0,0.2,1.6,0.2,2c0,0.4-0.2,23.4-0.2,23.4s0.2,1.8-1.3,2.7c0,0-0.4,0.2-0.5-1l0.2-24.3
		C109.6,62.6,109.8,59.6,111.3,59.8z"/>
	<path class="st1" d="M108.6,88.1c0,0,0.2-22.8,0.1-23.3c-0.1-0.4,0.1,0.3,0.1,0.3s-0.2-4,0.8-5.6c0,0-0.3-1.4-2.2,0.3l-0.1,3.3
		c0,0,0,1.9-1.7,1.8c0,0-1.9-0.1-2.8,0.8c0,0-0.5,1.8,1.4,1.5c0,0,2.9,0,3.1,1.2l-0.2,12.2c0,0,0.6,2-1.6,2c0,0-2.8-0.2-2.7,1.5
		c0,0,0.6,1.5,2.9,1c0,0,1.7,0.3,1.6,1.9v3.1c0,0-0.2,1.2,1.5,1.3h12.6c0,0,0.6,0.1,0.6-0.7c0,0-0.1-0.6-1.1-0.6l-10.5-0.2
		C110.5,90.1,108.8,90.7,108.6,88.1z"/>
	<path class="st3" d="M110.8,88.3c0,0-0.3,1.1,0.9,0.9h8.3l2.3,0.5c0,0,2.4-0.6,0-1.9c0,0-7.5,0.1-8.1-0.1c0,0-1.5-0.4-1.9-0.5
		C112.4,87.3,111.5,86.9,110.8,88.3z"/>
	<path class="st1" d="M124.7,89.4c0,0-1.5,0-1.5,2c0,0,0.2,1.5,1.8,1.5c0,0,1.5-0.2,1.3-1.9C126.3,91.1,125.4,89.1,124.7,89.4z"/>
	<path class="st3" d="M125.8,88.6c0,0,0.7-0.8,1.2-0.8c0,0,8.1,0.7,9.5-0.2c0,0,1.2-0.2,1.5,0c0,0,1.2,1,1.2,1.5
		c0,0-0.1,0.7-1.5,0.3c0,0-9.2,0.1-9.6,0.1C128.1,89.5,125.6,90.1,125.8,88.6z"/>
	<path class="st1" d="M127.1,91.1c0,0,0-0.6,1.1-0.6l11.3-0.1c0,0,1.1,0.6,1.1-1.4c0,0,0.4-8.8,0.5-18.6c0-2.9,0.1-5.9,0-8.7
		c0,0-0.2-1.2-0.6-1.5c0,0,0-1.3,1.4-0.8c0,0,1.2,0.1,0.9,1.9l0.1,2.8c0,0-0.2,1.2,1.9,0.9c0,0,2.2,0.3,2.3,1.1c0,0,0.6,1.6-1.9,1.5
		h-1.9c0,0-0.8,0.5-0.6,1.5l-0.2,11.7c0,0-0.2,2,1.8,1.9c0,0,2-0.1,2.4,0.6c0,0,1.4,2-1.6,1.9c0,0-1.9-0.1-2.3,0.2
		c0,0-0.3,0.4-0.6,4.2c0,0,0.2,2.3-1.5,2c0,0-11.3,0.2-12.3-0.1C128.4,91.6,127.3,91.9,127.1,91.1z"/>
	<path class="st1" d="M112.5,59l-0.2,26c0,0-0.1,1.2,1.9,1.5c0,0,2.3,0.2,2.9,0c0,0,1.5-0.1,5.5,0.1c0,0,1,1,1.1-0.2
		c0,0,0.6-21.1,0.3-25.4c0,0-0.1-1.9-1.5-1.9c0,0-6.2,0.5-6.7,0l-2.4-0.6C113.4,58.3,112.4,58.4,112.5,59z"/>
	<path class="st1" d="M125.3,60.3c0,0-0.2,12.2-0.2,12.6L125,83.3l-0.3,3.6c0,0,0.5,0.7,0.9,0.2c0,0,2.6-0.6,4.2-0.4
		c0,0,5.2,0.5,6.2-0.3c0,0,0.8,0.4,1.1-0.9c0,0,0.3-22.7,0.2-23.1c0,0,0.3-3.2,0.2-3.6c0,0-0.1-0.7-1.5-0.1c0,0,0.2,0.6-7.5,0.4
		C128.4,59.1,125.5,59,125.3,60.3z"/>
	<path class="st3" d="M138.2,60l-0.1,25.6c0,0,0.6,2.3,1.7,2c0,0,0.2-0.5,0.2-1.3l0.3-24.4C140.4,62,139.6,58.1,138.2,60z"/>
	<path class="st4" d="M128.3,67.7c-0.2-0.6,1.4-0.7,1.4-0.7l0.8,0.2c0.6-0.1,1.1,0.2,1.1,0.2c0.6,0.9-0.4,1.4-0.4,1.4l-0.3,1.1
		c-0.1,0.9,0,8.6,0,8.6c0.2,0.4,0.8,1.1,0.8,1.1c0,0.7-0.9,0.6-0.9,0.6l-2.4,0.1c-0.7-0.1-0.5-0.9-0.5-0.9c0.8-0.4,1.1-1.9,1.1-1.9
		v-8L128.3,67.7z"/>
	<path class="st4" d="M117.3,75.2l-0.2,2.5l0.7,1.2c0.5,0.6-0.3,1.1-0.3,1.1l-2.6-0.2c-0.5-0.2,0-1.1,0-1.1c0.6-0.4,0.7-1.5,0.7-1.5
		l-0.1-4.7l0.1-3.4c0-0.4-0.6-1.1-0.6-1.1c-0.6-0.1-0.4-0.8-0.4-0.8c0.2-0.4,1.5-0.2,1.5-0.2h3.4c3.2,1.1,2.8,3.4,2.8,3.4
		c0.2,2.4-2.3,3.3-2.3,3.3l-0.2,1.3l2.4,3.7c0.4,0.3,0.3,0.6,0.3,0.6c-0.3,0.9-1.6,0-1.6,0L118,75C117.8,74.7,117.3,75.2,117.3,75.2
		z M117.4,68.8c0.1,1.8,0.1,4.2,0.1,4.2c1.5,1.2,2.4-0.5,2.4-0.5c2-1.9,0-3.7-0.3-4.2c-0.3-0.5-1.9-0.1-1.9-0.1L117.4,68.8z"/>
	<path class="st2" d="M100.3,106.9c0,0,0.6-0.2,0.7-0.6c0,0,1.7-0.2,1.9-0.4l5.3,0.4c0,0,5.3,0.4,7.5-1.2c0,0,0.8,0,1.4,0.2
		c0,0,1.1,0.2,1.5,0.7l3.1-0.1c0,0,1.8,0.6,1.6,1.7v1.5c0,0-0.3,2.9,0.5,3.1h2.3c0,0,1.9,0.9,1.7,2c0,0,0.1,1.6-1.6,1.9
		c0,0-1.7,0.5-2.3,0.4c0,0-0.6,0.7-0.6,1.6l-0.2,10.6c0,0-0.2,1.1,1.5,1c0,0,2.5-0.2,3.2,1.1c0,0,0.6,2.4-0.6,2.8l-1,0.5l-2.1,0.3
		c0,0-0.9,0.1-1,1.6v2.8c0,0,0.1,1.9-1.5,1.9l-2.3,0.2c0,0-0.6,0.5-1.7,0.2c0,0-13.8,0.2-14.3,0.1l-1.6,0.3c0,0-1.8,1.6-3.2,0.4
		l-1.1-0.9c0,0-0.8,0.2-1.1,0.1c-0.3-0.1-15.2,0.2-15.2,0.2s-3.2,0.3-3.4-0.7c0,0-0.4-4.1-0.2-4.6c0,0,0-1.2-0.7-1.3
		c0,0-3.2-0.2-3.2-0.5c0,0-1.7-1.2-1.2-2.4c0,0,0.6-1.6,2.3-1.8c0,0,2.6,0.4,2.6-0.3c0,0,0.2-0.5,0.2-1.3c0,0,0.2-9.6,0.1-10.3
		c0,0,0.2-1.2-0.8-1.2c0,0-1.1,0.3-1.9-0.2c0,0-1.9,0.1-2.3-1.5c0,0-0.3-1,0.2-1.8c0,0,0.9-1.8,3.5-1.2c0,0,1.5,0.4,1.6-0.6
		l-0.1-3.9c0,0-0.3-1.1,1.7-1.6c0,0,2.6,0.7,3.4-0.6c0,0,0.9-1.8,1.6-0.6c0,0,1.5,1.5,5.8,1.3c0,0,7.3-0.6,7.5-0.2
		c0,0,1.8,0.2,2.3,0.8L100.3,106.9z"/>
	<path class="st1" d="M102.4,138.7c0,0,1-0.5,1.6-0.3c0.6,0.2,10.1-0.1,10.1-0.1s4.1,0.3,4.8-0.2l1-0.3c0,0,0.4-0.5,0.4-1.1
		c0-0.6,0.1-2.8,0.1-2.8l0.2-0.8c0,0-0.1-0.8,0-22.4c0,0,0.3-1.7-0.7-2.8c0,0,0-0.6,0.3-0.6c0.3,0.1,0.2,0.1,0.2,0.1
		s1.5-0.4,1.7,0.2c0,0,0.6,1.9,0.1,3.1c0,0-0.2,2.3,1.1,2.3c0,0,0.5,0.5,1.5,0.2c0,0,2.1,0.2,2.1,0.9c0,0,0,1.5-1.5,1.2l-1.9,0.2
		c0,0-1.3,0.2-1.1,1.8c0.2,1.5-0.1,12.6-0.1,12.6s0,1.3,2,1.2c0,0,2.5-0.1,2.5,0.6c0,0,0.6,1.6-1.1,1.7c0,0-3.4-0.1-3.2,0.9
		c0,0-0.2,2.3-0.4,2.7c0,0,0.3,1.9-0.1,2.2c0,0-0.2,1.1-2.4,0.9c0,0-13.9-0.1-16.1,0.1C103.4,140,102.1,139.9,102.4,138.7z"/>
	<path class="st1" d="M99.9,137.2c0,0,1.4,0.2,1.4,1.5c0,1.3,0.1,2-0.7,2.2c-0.8,0.2-1.7-0.1-1.9-1.1
		C98.4,138.7,98.8,137.4,99.9,137.2z"/>
	<path class="st5" d="M101.5,136.6c0,0,1.5-1,2-0.8c0,0,7.4,0.5,9.6,0.1c2.3-0.4,0.9-0.1,0.9-0.1s1.9,0,2.5-0.7c0,0,0.6-0.2,0.9,0.4
		l1.2,1.3c0,0,0.1,0.8-1.3,0.7c0,0-13.2,0-13.6,0.1C103.8,137.5,101.3,137.9,101.5,136.6z"/>
	<path class="st3" d="M82.3,107.8c0,0,0.6,0,0.5,1l-0.2,24.5c0,0,0.2,1.6-1.1,2.7c0,0-0.7,0.9-0.7-0.5l0.3-25
		C81.1,110.5,81.2,108.6,82.3,107.8z"/>
	<path class="st1" d="M81,108c0,0-1,1.8-0.9,2.2l-0.1,5.4c0,0-0.1,3.5,0,3.9c0.1,0.4-0.1,10.6-0.1,10.6s-0.1,1.9,0,2.6v4.4
		c0,0-0.2,1.9,1.3,1.5c0,0,14.3-0.3,15.2-0.1c0,0,1.3,0.2,0.8,0.9c0,0,0,0.6-0.9,0.4c0,0-6.7,0.6-12.8,0.4c0,0-4.1,0.2-4.3-0.2
		c0,0-0.6-0.1-0.6-2.4c0,0,0-2.2-0.2-2.6c0,0,0.2-1.1-1.9-1.4c0,0-2.8,0.5-2.9-1.2c0,0,0.4-1.2,3.2-1.1c0,0,2,0.3,1.6-1.3l0.2-12
		c0,0,0.2-2.1-1.1-2.2c0,0-1.3-0.1-1.7,0.1c0,0-2.3,0-2.2-1.4c0,0,0.8-1.5,3.2-1.1c0,0,1.8,0.3,1.9-1.7c0,0-0.1-4.1,0.9-4.3
		C79.6,107.3,81.6,107.4,81,108z"/>
	<path class="st3" d="M83.4,134.8c0,0,1.1,1.2,3,1.1l11,0.2c0,0,1.2,0.1,1.1,0.7c0,0-0.2,1-1.6,0.6l-13.3-0.2l-1.5,0.1
		c0,0-1-0.2,0.6-2L83.4,134.8z"/>
	<path class="st3" d="M117.5,133.7c0,0,1,1.9,1.5,2.1c0,0,0.9,1.1,0.6-0.8l0.2-23.3c0,0-0.2-0.8,0-2.1l-1-1.8c0,0-1.1-0.8-1.1,0.5
		l-0.2,24.9L117.5,133.7z"/>
	<path class="st1" d="M99.5,122.6c0,0,0.1,1.9-0.2,3.8c-0.1,1,0.3,5.8-0.1,8.2c0,0-0.1,0.8-1.8,0.1c0,0-10.4,0.2-10.7-0.1
		c0,0-2.8,0.1-3.1-1.4c0,0,0.4-11.1,0.2-11.5c0,0-0.2-6.1,0-6.6c0,0,0.2-5.6,0.1-6.2c0,0,0.1-1.3-0.2-1.9c0,0,0-0.8,1.4-0.3
		c0,0,0.5,0.9,3.2,0.5c0,0,1.9,0.3,3.8,0.1c0,0,4.1-0.3,5.2,0c0,0,1.6-0.3,2.1,1.5l-0.1,5l0.5,1.6l0.6-0.4l0.2-1.2l0.1-5.3
		c0,0,0.3-1,1.6-1.1c0,0,2-0.2,2.4-0.1c0.3,0.2,4.7,0.4,5.9,0.2c1.2-0.2,1.5,0.8,5.1-1.1c0,0,1,0.1,1,0.7c0,0-0.3,6.9,0,8.2
		c0,0,0,12.6-0.2,13.5l0.2,4.1c0,0,0.2,1.8-2.7,1.9c0,0,1.8,0.2-9.4-0.1c0,0-1.8-0.1-3.7,0.8c0,0-0.4-0.1-0.4-1.1c0,0,0.3-3.8,0-7.5
		l-0.2-4.1L99.5,122.6z"/>
	<path class="st4" d="M92.2,116.9c0,0,0.2,6,0,6.8l-0.1,1.3c0,0,0.3,0.9,0.8,1.2c0,0,0.4,1.1-0.6,1.1c0,0-2-0.2-2.5-0.1
		c0,0-1.1,0,0-1.5c0,0,0.4-0.6,0.3-2c0,0,0-6.8,0.2-7.2c0,0,0.2-0.9-0.4-1.1l-1,0.1l-1.2,1.1c0,0-0.2,1.2-0.8-0.1v-0.6l0.7-1.9
		l0.5-0.1c0,0,0.7,0.5,1.4,0.6h3.8l1.4-0.6c0,0,0.6,0.1,0.4,0.8c0,0,0.2,1.9-0.8,2.1c0,0-0.6-0.2-1-1.1
		C93.3,115.6,92.3,115,92.2,116.9z"/>
	<path class="st4" d="M110.1,114.7c0,0-3.1-0.2-3.2,3.1c0,0-0.3,2.3,3.1,3.7c0,0,2.5,1.2,2.4,2.8c0,0-0.3,2.8-3,1.4
		c0,0-1.3-0.6-1.2-1.4c0,0-0.4-0.9-0.9-0.7c0,0-0.6,0.2-0.3,2.8c0,0,0,1.1,1.2,0l0.6,0.2c0,0,2.2,1.8,4.1-0.4c0,0,2-1.9,0.6-4.1
		c0,0-1.1-1.6-2.9-2.4c0,0-1.8-0.8-2.2-2.2c0,0,0.6-2.4,2.8-1.1c0,0,0.8,1,1.3,1.1c0,0,0.6,0,0.5-1.5l-0.2-1.2c0,0-0.2-0.9-1.3,0
		C111.4,114.7,110.3,115.1,110.1,114.7z"/>
	<path class="st4" d="M100.2,113c0.6,0.4,0.6,1.2,0.6,1.2c1.6,4.3,3,10.5,3,10.5c0.4,0.8,1.1,1.5,1.1,1.5c1.4,0.5,0,0.9,0,0.9
		c-0.6,0.2-2.4-0.1-2.4-0.1c-1-0.2-0.6-0.5-0.6-0.5c0.4-0.4,0.1-2,0.1-2c-0.1-0.6-0.8-1.7-0.8-1.7c-0.3-0.2-0.9,0.6-0.9,0.6
		s-0.9,0.3-1,0c-0.1-0.3-0.6-0.6-0.6-0.6c-1,0-1.4,2.4-1.4,2.4c0.6,2,0,1.7,0,1.7c-0.5,0.6-2,0.2-2,0.2c-0.7-0.2-0.2-0.7-0.2-0.7
		c0.9-0.2,1.1-1.1,1.1-1.1c0.4-0.6,3-11.1,3-11.1C99.5,113.5,99.7,112.6,100.2,113z M98.9,118.3c-0.1,0.4-0.6,2.7-0.6,2.7l0.5,0.8
		c0,0,1.3,0.1,1.8,0.1c0.5,0,0.6-0.4,0.6-0.8c0-0.4-0.9-2.8-0.9-2.8l-0.4-0.5L98.9,118.3z"/>
	<path class="st6" d="M78.2,93.4c0,0-0.9,2.8-4.9-0.1L59.7,93c0,0-1.8,0.6-2-1.3c0,0,0.3-3.7,0.2-4.1c0,0,0.1-1.1-1.7-1.1
		c0,0-2.8,0.3-2.8-2.1c0,0-0.5-2.6,3.3-2.5c0,0,1.2,0.6,1.3-1c0,0-0.2-10.5-0.1-11.3c0,0,0.3-1-1.5-1.1c0,0-2.7,0.6-3-1.2
		c0,0-0.2-2.7,1.6-2.8c0,0,2.2,0.2,2.6-0.4c0,0,0.5,0.3,0.4-1.6l0.1-3.3c0,0,0.2-0.9,1.6-0.8c0,0,2.5,0.2,2.8-0.1
		c0,0,0.6-0.7,0.7-1.1c0,0,1.3-0.1,1.5,0.2c0,0,1.9,1.3,9.3,0.8c0,0,1.1,0,1.4,0.3c0,0,1.4,1.1,2.2-0.1c0,0,1.2-0.2,4.9-0.2
		c0,0,4,1.1,6.7-1.2l0.9,0.2c0,0,1.1,1.9,1.9,1.3c0,0,2.4-0.2,2.8,0.2c0,0,0.8,1.2,0.4,4.4c0,0-0.5,1.4,1.9,1.4c0,0,2.7-0.5,2.3,2
		c0,0,0.7,2.8-3.7,2.4c0,0-0.6,0.8-0.5,1.4c0,0-0.1,9.2-0.2,10.3c0,0-0.1,1.5,1.9,1.4c0,0,2.6-0.2,2.7,2.2c0,0,0.3,3.1-3.4,2.5
		c0,0-1.1,0.2-1.3,0.9l-0.2,4.1c0,0,0.1,2-2.2,1.5c-0.3,0-12.6,0.2-13.7-0.1C78.9,93.1,78.3,93,78.2,93.4z"/>
	<path class="st3" d="M62.8,60c0,0,0.2,1.6,0.2,2c0,0.4-0.2,23.4-0.2,23.4s0.2,1.8-1.3,2.7c0,0-0.4,0.2-0.5-1l0.2-24.3
		C61.1,62.8,61.3,59.8,62.8,60z"/>
	<path class="st1" d="M60.2,88.3c0,0,0.2-22.8,0.1-23.3c-0.1-0.4,0.1,0.3,0.1,0.3s-0.2-4,0.8-5.6c0,0-0.3-1.4-2.2,0.3l-0.1,3.3
		c0,0,0,1.9-1.7,1.8c0,0-1.9-0.1-2.8,0.8c0,0-0.5,1.8,1.4,1.5c0,0,2.9,0,3.1,1.2L58.6,81c0,0,0.6,2-1.6,2c0,0-2.8-0.2-2.7,1.5
		c0,0,0.6,1.5,2.9,1c0,0,1.7,0.3,1.6,1.9v3.1c0,0-0.2,1.2,1.5,1.3H73c0,0,0.6,0.1,0.6-0.7c0,0-0.1-0.6-1.1-0.6L62,90.3
		C62,90.3,60.3,90.8,60.2,88.3z"/>
	<path class="st3" d="M62.4,88.5c0,0-0.3,1.1,0.9,0.9h8.3l2.3,0.5c0,0,2.4-0.6,0-1.9c0,0-7.5,0.1-8.1-0.1c0,0-1.5-0.4-1.9-0.5
		C63.9,87.4,63.1,87.1,62.4,88.5z"/>
	<path class="st1" d="M76.2,89.6c0,0-1.5,0-1.5,2c0,0,0.2,1.5,1.8,1.5c0,0,1.5-0.2,1.3-1.9C77.8,91.3,76.9,89.3,76.2,89.6z"/>
	<path class="st3" d="M77.4,88.8c0,0,0.7-0.8,1.2-0.8c0,0,8.1,0.7,9.5-0.2c0,0,1.2-0.2,1.5,0c0,0,1.2,1,1.2,1.5c0,0-0.1,0.7-1.5,0.3
		c0,0-9.2,0.1-9.6,0.1C79.6,89.7,77.1,90.3,77.4,88.8z"/>
	<path class="st1" d="M78.7,91.3c0,0,0-0.6,1.1-0.6l11.3-0.1c0,0,1.1,0.6,1.1-1.4c0,0,0.4-8.8,0.5-18.6c0-2.9,0.1-5.9,0-8.7
		c0,0-0.2-1.2-0.6-1.5c0,0,0-1.3,1.4-0.8c0,0,1.2,0.1,0.9,1.9l0.1,2.8c0,0-0.2,1.2,1.9,0.9c0,0,2.2,0.3,2.3,1.1c0,0,0.6,1.6-1.9,1.5
		h-1.9c0,0-0.8,0.5-0.6,1.5L94,81c0,0-0.2,2,1.8,1.9c0,0,2-0.1,2.4,0.6c0,0,1.4,2-1.6,1.9c0,0-1.9-0.1-2.3,0.2c0,0-0.3,0.4-0.6,4.2
		c0,0,0.2,2.3-1.5,2c0,0-11.3,0.2-12.3-0.1C79.9,91.8,78.8,92.1,78.7,91.3z"/>
	<path class="st1" d="M64.1,59.2l-0.2,26c0,0-0.1,1.2,1.9,1.5c0,0,2.4,0.2,2.9,0c0,0,1.5-0.1,5.5,0.1c0,0,1,1,1.1-0.2
		c0,0,0.6-21.1,0.3-25.4c0,0-0.1-1.9-1.5-1.9c0,0-6.2,0.5-6.7,0L65,58.5C65,58.5,64,58.6,64.1,59.2z"/>
	<path class="st3" d="M89.8,60.2l-0.1,25.6c0,0,0.6,2.3,1.7,2c0,0,0.2-0.5,0.2-1.3l0.3-24.4C91.9,62.2,91.1,58.3,89.8,60.2z"/>
	<path class="st1" d="M76.9,60.4c0,0-0.2,12.2-0.2,12.6l-0.2,10.3l-0.3,3.6c0,0,0.5,0.7,0.9,0.2c0,0,2.6-0.6,4.2-0.4
		c0,0,5.2,0.5,6.2-0.3c0,0,0.8,0.4,1.1-0.9c0,0,0.3-22.7,0.2-23.1c0,0,0.3-3.2,0.2-3.6c0,0-0.1-0.7-1.5-0.1c0,0,0.2,0.6-7.5,0.4
		C80,59.2,77,59.1,76.9,60.4z"/>
	<path class="st4" d="M74.4,67.9l-0.7,1.5c0,0-1.8,7.9-2.8,9.5c0,0-0.2,1.6-1.5,0.3c0,0-3.2-10-3.3-10.3L65,68.3c0,0-0.6-0.9,0.5-1
		l3,0.1c0,0,1,0.8-0.3,1.7c0,0,0.2,1.3,1.9,6.2c0,0,0.5,1.9,1.1,0.5l1.6-5.8l-0.5-1.7c0,0-0.5-0.8,0.2-0.9
		C72.4,67.4,74.1,67.3,74.4,67.9z"/>
	<path class="st4" d="M79.1,69.2L79,77.8l-0.2,0.6c0,0-0.8,1.1-0.2,1.1c0,0-0.7,0.5,5.2,0.6c0,0,2.3,0.4,1.7-2.5
		c0,0-0.2-1.1-1.1,0.5c0,0-0.2,1.3-3.2,0.9c0,0-0.6-0.6-0.6-1.2v-3.6c0,0-0.1-0.9,1.3-0.8c0,0,1.5,1,1.8,0.6c0,0,0.6-1.3,0-2.1
		c0,0-0.7-0.1-0.8,0.2c0,0-0.5,1-1.9,0.4c0,0-0.6-1.3-0.2-2.3c0,0-0.2-2,1.2-1.9c0,0,1.6,0.3,1.8,0.8c0,0,0.4,1,0.8-0.2l-0.4-1.4
		c0,0-0.2-0.6-0.6-0.4c0,0-2.8,0.4-3.1,0.1l-2.2,0.2c0,0-0.3,0.8,0.6,1.2C78.8,68.7,79.1,68.9,79.1,69.2z"/>
</g>
</svg>
